<mxfile host="app.diagrams.net" agent="Mozilla/5.0 (Windows NT 10.0; Win64; x64) AppleWebKit/537.36 (KHTML, like Gecko) Chrome/133.0.0.0 Safari/537.36" version="26.0.14">
  <diagram name="Page-1" id="qG_ip62TLsYV03xgoPaF">
    <mxGraphModel dx="1050" dy="603" grid="1" gridSize="10" guides="1" tooltips="1" connect="1" arrows="1" fold="1" page="1" pageScale="1" pageWidth="850" pageHeight="1100" math="0" shadow="0">
      <root>
        <mxCell id="0" />
        <mxCell id="1" parent="0" />
        <mxCell id="T9l9VRint8ORI5ikCItX-4" style="edgeStyle=orthogonalEdgeStyle;rounded=0;orthogonalLoop=1;jettySize=auto;html=1;exitX=1;exitY=0.5;exitDx=0;exitDy=0;" edge="1" parent="1" source="T9l9VRint8ORI5ikCItX-1">
          <mxGeometry relative="1" as="geometry">
            <mxPoint x="480" y="145" as="targetPoint" />
          </mxGeometry>
        </mxCell>
        <mxCell id="T9l9VRint8ORI5ikCItX-1" value="" style="rounded=0;whiteSpace=wrap;html=1;" vertex="1" parent="1">
          <mxGeometry x="240" y="70" width="120" height="150" as="geometry" />
        </mxCell>
        <mxCell id="T9l9VRint8ORI5ikCItX-8" style="edgeStyle=orthogonalEdgeStyle;rounded=0;orthogonalLoop=1;jettySize=auto;html=1;exitX=0.5;exitY=1;exitDx=0;exitDy=0;" edge="1" parent="1" source="T9l9VRint8ORI5ikCItX-6" target="T9l9VRint8ORI5ikCItX-1">
          <mxGeometry relative="1" as="geometry" />
        </mxCell>
        <mxCell id="T9l9VRint8ORI5ikCItX-6" value="" style="shape=offPageConnector;whiteSpace=wrap;html=1;direction=north;" vertex="1" parent="1">
          <mxGeometry x="70" y="130" width="50" height="30" as="geometry" />
        </mxCell>
        <mxCell id="T9l9VRint8ORI5ikCItX-7" value="" style="shape=offPageConnector;whiteSpace=wrap;html=1;direction=north;" vertex="1" parent="1">
          <mxGeometry x="480" y="130" width="50" height="30" as="geometry" />
        </mxCell>
        <mxCell id="T9l9VRint8ORI5ikCItX-9" value="&lt;font style=&quot;font-size: 14px;&quot;&gt;Segment Decoder&lt;/font&gt;" style="text;html=1;align=center;verticalAlign=middle;whiteSpace=wrap;rounded=0;" vertex="1" parent="1">
          <mxGeometry x="240" y="70" width="120" height="150" as="geometry" />
        </mxCell>
        <mxCell id="T9l9VRint8ORI5ikCItX-10" value="num [3:0]" style="text;html=1;align=center;verticalAlign=middle;whiteSpace=wrap;rounded=0;" vertex="1" parent="1">
          <mxGeometry x="60" y="100" width="60" height="30" as="geometry" />
        </mxCell>
        <mxCell id="T9l9VRint8ORI5ikCItX-11" value="seg [6:0]" style="text;html=1;align=center;verticalAlign=middle;whiteSpace=wrap;rounded=0;" vertex="1" parent="1">
          <mxGeometry x="470" y="100" width="60" height="30" as="geometry" />
        </mxCell>
        <mxCell id="T9l9VRint8ORI5ikCItX-12" style="edgeStyle=orthogonalEdgeStyle;rounded=0;orthogonalLoop=1;jettySize=auto;html=1;exitX=1;exitY=0.5;exitDx=0;exitDy=0;" edge="1" parent="1" source="T9l9VRint8ORI5ikCItX-13">
          <mxGeometry relative="1" as="geometry">
            <mxPoint x="480" y="325" as="targetPoint" />
          </mxGeometry>
        </mxCell>
        <mxCell id="T9l9VRint8ORI5ikCItX-13" value="" style="rounded=0;whiteSpace=wrap;html=1;" vertex="1" parent="1">
          <mxGeometry x="240" y="250" width="120" height="150" as="geometry" />
        </mxCell>
        <mxCell id="T9l9VRint8ORI5ikCItX-14" style="edgeStyle=orthogonalEdgeStyle;rounded=0;orthogonalLoop=1;jettySize=auto;html=1;exitX=0.5;exitY=1;exitDx=0;exitDy=0;" edge="1" parent="1" source="T9l9VRint8ORI5ikCItX-15" target="T9l9VRint8ORI5ikCItX-13">
          <mxGeometry relative="1" as="geometry" />
        </mxCell>
        <mxCell id="T9l9VRint8ORI5ikCItX-15" value="" style="shape=offPageConnector;whiteSpace=wrap;html=1;direction=north;" vertex="1" parent="1">
          <mxGeometry x="70" y="310" width="50" height="30" as="geometry" />
        </mxCell>
        <mxCell id="T9l9VRint8ORI5ikCItX-16" value="" style="shape=offPageConnector;whiteSpace=wrap;html=1;direction=north;" vertex="1" parent="1">
          <mxGeometry x="480" y="310" width="50" height="30" as="geometry" />
        </mxCell>
        <mxCell id="T9l9VRint8ORI5ikCItX-17" value="&lt;font style=&quot;font-size: 14px;&quot;&gt;Anode Decoder&lt;/font&gt;" style="text;html=1;align=center;verticalAlign=middle;whiteSpace=wrap;rounded=0;" vertex="1" parent="1">
          <mxGeometry x="240" y="250" width="120" height="150" as="geometry" />
        </mxCell>
        <mxCell id="T9l9VRint8ORI5ikCItX-18" value="sel [2:0]" style="text;html=1;align=center;verticalAlign=middle;whiteSpace=wrap;rounded=0;" vertex="1" parent="1">
          <mxGeometry x="60" y="280" width="60" height="30" as="geometry" />
        </mxCell>
        <mxCell id="T9l9VRint8ORI5ikCItX-19" value="anode [7:0]" style="text;html=1;align=center;verticalAlign=middle;whiteSpace=wrap;rounded=0;" vertex="1" parent="1">
          <mxGeometry x="470" y="280" width="70" height="30" as="geometry" />
        </mxCell>
      </root>
    </mxGraphModel>
  </diagram>
</mxfile>
